<?xml version="1.0" encoding="iso-8859-1"?>
<!-- Uploaded to: SVG Repo, www.svgrepo.com, Generator: SVG Repo Mixer Tools -->
<svg fill="#000000" height="800px" width="800px" version="1.1" id="Capa_1" xmlns="http://www.w3.org/2000/svg" xmlns:xlink="http://www.w3.org/1999/xlink" 
	 viewBox="0 0 58 58" xml:space="preserve">
<g>
	<g>
		<g>
			<path d="M41.115,2.668c-2.426-1.122-5.028-1.924-7.758-2.338C26.732,8.333,20.6,16.142,18.937,29.869
				c3.317-0.233,6.444-0.775,9.137-1.633c1.334-11.806,6.42-17.794,11.81-24.111C40.291,3.65,40.704,3.153,41.115,2.668z"/>
			<path d="M47.355,51.423c-0.175-10.258-3.116-23.47-15.191-32.004c-1.007,2.652-1.748,5.682-2.136,9.303l0.273,0.365
				c5.253,6.344,9.136,16.137,10.501,26.388C43.171,54.413,45.374,53.049,47.355,51.423z"/>
			<path d="M0.914,36.278c10.225,3.072,18.423,4.453,31.375-0.7c-1.096-1.948-2.287-3.72-3.557-5.254l-0.12-0.159
				c-3.877,1.221-8.604,1.829-13.496,1.829c-5.142,0-10.442-0.673-15.103-1.973C0.089,32.173,0.392,34.268,0.914,36.278z"/>
			<path d="M36.237,44.614c-0.856-2.562-1.863-5.009-3-7.26c-6.586,2.648-11.994,3.7-17.009,3.7c-4.974,0-9.582-1.022-14.61-2.485
				c1.038,2.959,2.541,5.698,4.424,8.133C15.537,48.832,24.63,49.078,36.237,44.614z"/>
			<path d="M41.406,5.423c-1.24,1.453-2.438,2.864-3.569,4.307c11.132,6.064,15.776,18.293,18.332,29.374
				c1.174-3.148,1.819-6.552,1.819-10.105c0-10.931-6.081-20.466-15.036-25.407C42.435,4.207,41.916,4.826,41.406,5.423z"/>
			<path d="M9.922,29.768c2.335,0.208,4.689,0.278,6.988,0.204c1.597-13.919,7.516-21.939,14.064-29.896
				C30.317,0.031,29.656,0,28.988,0c-1.594,0-3.156,0.135-4.68,0.383C17.434,8.641,11.506,15.873,9.922,29.768z"/>
			<path d="M36.617,11.339c-1.383,1.902-2.623,3.918-3.663,6.197c12.374,8.529,15.863,21.565,16.35,32.133
				c2.209-2.171,4.068-4.694,5.496-7.474C52.313,30.178,48.09,17.403,36.617,11.339z"/>
			<path d="M36.84,46.523c-6.845,2.619-12.853,3.679-18.56,3.679c-3.422,0-6.74-0.377-10.075-1.006
				C13.476,54.62,20.844,58,28.988,58c3.475,0,6.808-0.616,9.898-1.741C38.473,52.959,37.776,49.672,36.84,46.523z"/>
			<path d="M7.934,29.556c1.521-13.322,7.034-20.98,13.191-28.464C9.268,4.438,0.476,15.144,0.015,27.945
				C2.497,28.676,5.179,29.214,7.934,29.556z"/>
		</g>
	</g>
</g>
</svg>